<svg width="216" height="261" viewBox="0 0 216 261" fill="none" xmlns="http://www.w3.org/2000/svg">
<g clip-path="url(#clip0_23602_27)">
<path d="M208 8.79004H8V208.79H208V8.79004Z" stroke="black" stroke-width="1.08" stroke-miterlimit="10"/>
<path d="M215.35 1H0.650024V216.7H215.35V1Z" stroke="black" stroke-width="1.08" stroke-miterlimit="10"/>
<path d="M32.52 235H32.4C32.4 234.32 32.15 233.74 31.65 233.26C31.15 232.78 30.57 232.53 29.89 232.53H29.42L29.38 232.14H32.52V235ZM32.52 256.73V259.59H29.38L29.42 259.2H29.89C30.57 259.2 31.16 258.96 31.65 258.47C32.15 257.99 32.4 257.41 32.4 256.72H32.52V256.73ZM36.05 232.14V259.59H32.4V232.14H36.05ZM38.36 232.14C40.22 232.14 41.82 232.4 43.16 232.92C44.51 233.44 45.54 234.19 46.26 235.17C46.98 236.15 47.34 237.33 47.34 238.72C47.34 239.87 47.12 240.86 46.69 241.68C46.26 242.5 45.7 243.16 45.02 243.64C44.34 244.12 43.62 244.46 42.86 244.64C44.22 244.82 45.41 245.25 46.45 245.93C47.48 246.61 48.27 247.47 48.82 248.52C49.37 249.57 49.64 250.77 49.64 252.13C49.64 253.65 49.25 254.97 48.48 256.09C47.71 257.21 46.59 258.08 45.13 258.68C43.67 259.28 41.91 259.58 39.88 259.58H35.68C35.71 259.06 35.72 258.55 35.72 258.05H39.21C40.52 258.05 41.63 257.81 42.56 257.34C43.49 256.87 44.2 256.16 44.7 255.22C45.2 254.28 45.45 253.13 45.45 251.77C45.45 250.41 45.2 249.29 44.7 248.42C44.2 247.54 43.56 246.87 42.78 246.38C42 245.9 41.13 245.56 40.17 245.36C39.22 245.16 38.28 245.07 37.37 245.07V244.72C37.97 244.72 38.61 244.64 39.29 244.48C39.97 244.32 40.62 244.05 41.23 243.66C41.84 243.27 42.34 242.7 42.72 241.95C43.1 241.2 43.29 240.24 43.29 239.07C43.29 237.9 43.08 236.82 42.66 235.99C42.24 235.17 41.62 234.55 40.8 234.15C39.98 233.74 38.98 233.54 37.8 233.54H33.72C33.72 233.54 33.69 233.39 33.62 233.17C33.55 232.95 33.46 232.6 33.33 232.13H38.35L38.36 232.14Z" fill="black"/>
<path d="M56.95 256.73C56.77 257.25 56.74 257.7 56.87 258.06C57 258.43 57.22 258.71 57.52 258.9C57.82 259.1 58.13 259.19 58.44 259.19H58.79V259.58H50.75V259.19H51.1C51.7 259.19 52.32 259 52.96 258.62C53.6 258.24 54.13 257.61 54.55 256.72H56.94L56.95 256.73ZM65.38 231.51L65.69 234.92L55.89 259.47H53.34L63.42 235.9C63.45 235.85 63.54 235.65 63.71 235.29C63.88 234.94 64.06 234.51 64.26 234.02C64.46 233.52 64.63 233.04 64.79 232.57C64.95 232.1 65.03 231.75 65.03 231.51H65.38ZM70.44 249.35V250.68H58.44V249.35H70.44ZM65.38 231.51L77.42 259.35H72.83L64.09 236.53L65.38 231.51ZM71.81 256.73H76.24C76.66 257.62 77.19 258.25 77.83 258.63C78.47 259.01 79.09 259.2 79.69 259.2H80V259.59H69.96V259.2H70.31C70.83 259.2 71.29 258.98 71.68 258.55C72.07 258.12 72.11 257.51 71.8 256.73H71.81Z" fill="black"/>
<path d="M89.57 231.59C90.01 231.59 90.52 231.62 91.1 231.67C91.68 231.72 92.26 231.79 92.85 231.89C93.44 231.98 93.96 232.07 94.42 232.16C94.88 232.25 95.21 232.35 95.42 232.45L95.26 237.12H94.91C94.91 235.84 94.45 234.82 93.54 234.06C92.62 233.3 91.47 232.92 90.09 232.92C88.63 232.92 87.44 233.35 86.54 234.19C85.64 235.04 85.19 236.04 85.19 237.19C85.16 237.77 85.31 238.37 85.64 239.01C85.97 239.65 86.47 240.25 87.15 240.79L94.8 247.18C95.71 247.89 96.36 248.7 96.74 249.63C97.12 250.56 97.3 251.52 97.27 252.51C97.22 254.81 96.45 256.65 94.96 258.04C93.47 259.43 91.46 260.12 88.92 260.12C88.11 260.12 87.24 260.04 86.31 259.88C85.38 259.72 84.51 259.48 83.7 259.16C82.89 258.83 82.24 258.41 81.74 257.89C81.61 257.42 81.55 256.84 81.56 256.14C81.57 255.45 81.65 254.73 81.8 254C81.95 253.27 82.13 252.61 82.37 252.04H82.72C82.59 253.37 82.78 254.56 83.29 255.61C83.8 256.66 84.54 257.46 85.53 258.02C86.51 258.58 87.64 258.84 88.92 258.78C90.46 258.73 91.74 258.25 92.74 257.35C93.75 256.45 94.25 255.27 94.25 253.8C94.25 253.04 94.08 252.35 93.74 251.72C93.4 251.09 92.88 250.53 92.17 250.03L84.88 243.83C83.89 243.1 83.18 242.24 82.76 241.24C82.34 240.25 82.16 239.25 82.21 238.26C82.26 237.08 82.58 235.98 83.15 234.95C83.72 233.92 84.55 233.09 85.64 232.48C86.72 231.87 88.04 231.56 89.58 231.56L89.57 231.59ZM95.41 231.98V232.8H91.88V231.98H95.41Z" fill="black"/>
<path d="M104.51 235H104.39C104.36 234.32 104.11 233.74 103.63 233.26C103.15 232.78 102.56 232.53 101.88 232.53H101.37V232.14H104.51V235ZM104.51 256.73V259.59H101.37V259.2H101.88C102.56 259.2 103.14 258.96 103.63 258.47C104.12 257.98 104.37 257.41 104.39 256.72H104.51V256.73ZM108.04 232.14V259.59H104.39V232.14H108.04ZM107.92 235V232.14H111.06V232.53H110.55C109.87 232.53 109.29 232.77 108.8 233.26C108.32 233.74 108.06 234.33 108.04 235H107.92ZM107.92 256.73H108.04C108.07 257.41 108.32 257.99 108.8 258.48C109.28 258.96 109.86 259.21 110.55 259.21H111.06V259.6H107.92V256.74V256.73ZM123.06 232.41L111.3 246.09L109.3 246.17L120.08 232.41H123.06ZM112.2 243.9L123.06 257.31C123.64 257.91 124.21 258.37 124.79 258.68C125.37 258.99 126.06 259.16 126.87 259.19V259.58H124.67C124.41 259.58 124 259.56 123.45 259.52C122.9 259.48 122.3 259.38 121.65 259.23C121 259.07 120.34 258.82 119.69 258.47C119.04 258.12 118.46 257.63 117.97 257C117.92 256.95 117.68 256.65 117.24 256.12C116.81 255.58 116.27 254.9 115.61 254.08C114.95 253.26 114.27 252.39 113.55 251.47C112.83 250.55 112.14 249.7 111.49 248.9C110.84 248.1 110.1 247.19 109.29 246.17L112.19 243.9H112.2ZM125.76 232.14V232.49H125.6C124.74 232.49 123.93 232.66 123.19 233C122.44 233.34 121.81 233.81 121.29 234.41L118.58 234.33C118.92 233.89 118.98 233.47 118.76 233.08C118.54 232.69 118.17 232.49 117.64 232.49H117.25V232.14H125.76Z" fill="black"/>
<path d="M142.03 231.59C144.96 231.59 147.51 232.18 149.7 233.35C151.88 234.53 153.58 236.19 154.8 238.33C156.02 240.47 156.62 242.98 156.62 245.86C156.62 248.74 156.01 251.25 154.8 253.39C153.59 255.53 151.88 257.19 149.7 258.37C147.52 259.55 144.96 260.13 142.03 260.13C139.1 260.13 136.62 259.54 134.44 258.37C132.26 257.19 130.56 255.53 129.34 253.39C128.12 251.25 127.52 248.74 127.52 245.86C127.52 242.98 128.13 240.47 129.34 238.33C130.55 236.19 132.25 234.53 134.44 233.35C136.62 232.17 139.15 231.59 142.03 231.59ZM142.03 258.8C144.15 258.8 145.98 258.26 147.52 257.19C149.06 256.12 150.27 254.62 151.13 252.68C151.99 250.75 152.42 248.47 152.42 245.86C152.42 243.25 151.99 240.97 151.13 239.04C150.27 237.11 149.06 235.6 147.52 234.53C145.98 233.46 144.15 232.92 142.03 232.92C139.91 232.92 138.15 233.46 136.6 234.53C135.04 235.6 133.84 237.1 132.97 239.04C132.11 240.97 131.68 243.25 131.68 245.86C131.68 248.47 132.11 250.75 132.97 252.68C133.83 254.62 135.04 256.12 136.6 257.19C138.15 258.26 139.97 258.8 142.03 258.8Z" fill="black"/>
<path d="M164.74 234.96L160.27 235C159.88 234.11 159.35 233.48 158.7 233.1C158.05 232.72 157.42 232.53 156.82 232.53H156.51V232.14H166.55V232.53H166.2C165.7 232.53 165.27 232.74 164.89 233.16C164.51 233.58 164.47 234.18 164.75 234.96H164.74ZM171.52 260.22L159.09 232.38H163.68L172.86 255.2L171.53 260.22H171.52ZM171.52 260.22L171.25 256.81L181.52 232.26H184.03L173.48 255.83C173.48 255.88 173.4 256.08 173.23 256.44C173.06 256.8 172.87 257.22 172.66 257.71C172.45 258.21 172.27 258.69 172.13 259.16C171.99 259.63 171.9 259.98 171.88 260.22H171.53H171.52ZM180.42 234.96C180.71 234.18 180.66 233.57 180.26 233.16C179.87 232.74 179.42 232.53 178.93 232.53H178.58V232.14H186.62V232.53H186.27C185.69 232.53 185.08 232.72 184.43 233.1C183.78 233.48 183.24 234.11 182.82 235L180.43 234.96H180.42Z" fill="black"/>
<path d="M144.03 89.9399C145.23 88.7399 146.67 88.14 148.36 88.14H149.62V87.17H125.6V88.14H126.86C128.54 88.14 130 88.7399 131.24 89.9399C132.47 91.1399 133.09 92.5799 133.09 94.2699V119.84H109.12C111.01 118.6 112.56 117.1 113.77 115.34C115.68 112.55 116.64 109.28 116.64 105.52C116.64 102.15 115.96 99.1699 114.6 96.5699C113.24 93.9799 111.28 91.8399 108.72 90.1499C106.87 88.9299 104.83 88.0399 102.56 87.4799C102.12 87.3699 101.67 87.25 101.22 87.17C100.77 87.09 100.3 87.0099 99.83 86.9399C101.71 86.4899 103.49 85.6599 105.18 84.4599C106.87 83.2599 108.24 81.6399 109.31 79.5999C110.38 77.5599 110.91 75.1099 110.91 72.2599C110.91 68.8199 110.02 65.8899 108.24 63.4599C106.46 61.0299 103.9 59.1699 100.56 57.8699C97.22 56.5699 93.25 55.9299 88.65 55.9299H66.38L66.48 56.8999H67.65C69.34 56.8999 70.79 57.4999 72.03 58.6999C73.26 59.8999 73.88 61.3399 73.88 63.0299V116.9C73.88 118.59 73.26 120.03 72.03 121.23C70.8 122.43 69.34 123.03 67.65 123.03H66.48L66.38 124H92.44C92.91 124 93.36 124 93.82 123.98V148.14C93.75 149.82 93.12 151.26 91.92 152.46C90.72 153.66 89.28 154.26 87.59 154.26H86.33V155.23H94.1H102.56V148.13V155.22H110.34V154.25H109.08C107.39 154.25 105.95 153.65 104.75 152.45C103.55 151.25 102.92 149.81 102.85 148.12V123.14H101.88H133.09V148.13C133.09 149.82 132.47 151.26 131.24 152.46C130.01 153.66 128.55 154.26 126.86 154.26H125.6V155.23H149.62V154.26H148.36C146.67 154.26 145.23 153.66 144.03 152.46C142.83 151.26 142.2 149.82 142.13 148.13V94.2599C142.19 92.5699 142.83 91.1299 144.03 89.9299V89.9399ZM99.09 118.45C97.53 119.23 95.78 119.76 93.81 120.01C92.85 120.14 91.83 120.2 90.78 120.2H82.9V59.4299H87.28C90.2 59.4299 92.68 59.9299 94.72 60.9399C96.76 61.9399 98.3 63.4699 99.34 65.5099C100.38 67.5499 100.9 70.0999 100.9 73.1399C100.9 76.1799 100.43 78.4399 99.49 80.2899C98.55 82.1399 97.32 83.5499 95.8 84.5199C94.28 85.4899 92.67 86.1699 90.99 86.5599C89.3 86.9499 87.72 87.14 86.23 87.14V88.0199C88.5 88.0199 90.82 88.2599 93.18 88.7499C93.5 88.8099 93.81 88.8799 94.12 88.9599C96.13 89.4599 97.96 90.2399 99.65 91.2799C100.74 91.9599 101.72 92.7899 102.58 93.7599C103.26 94.5199 103.88 95.3799 104.41 96.3399C105.64 98.5099 106.26 101.28 106.26 104.65C106.26 108.02 105.64 110.87 104.41 113.21C103.97 114.05 103.45 114.81 102.87 115.51C101.83 116.73 100.59 117.71 99.11 118.46L99.09 118.45Z" fill="black"/>
<path d="M143.96 82.4899H130.43L126.83 62.96H147.57L143.96 82.4899Z" stroke="black" stroke-width="3" stroke-miterlimit="10"/>
<path d="M137.71 60.3899H136.59V82.4899H137.71V60.3899Z" fill="black"/>
<path d="M145.11 64.3901H129.18L128.58 60.0901H145.71L145.11 64.3901Z" fill="black"/>
<path d="M143.91 83.9901H130.34L129.97 80.3H144.33L143.91 83.9901Z" fill="black"/>
<path d="M117.45 73.3401L124.38 73.3901" stroke="black" stroke-width="1.2" stroke-miterlimit="10" stroke-linecap="round"/>
<path d="M116.41 55.4299L121.6 60.0299" stroke="black" stroke-width="1.2" stroke-miterlimit="10" stroke-linecap="round"/>
<path d="M157.04 73.3401L150.11 73.3901" stroke="black" stroke-width="1.2" stroke-miterlimit="10" stroke-linecap="round"/>
<path d="M157.35 55.4299L152.17 60.0299" stroke="black" stroke-width="1.2" stroke-miterlimit="10" stroke-linecap="round"/>
</g>
<defs>
<clipPath id="clip0_23602_27">
<rect width="216" height="261" fill="white"/>
</clipPath>
</defs>
</svg>
