<svg width="217" height="262" viewBox="0 0 217 262" fill="none" xmlns="http://www.w3.org/2000/svg">
<g clip-path="url(#clip0_16970_3)">
<rect width="216.7" height="261.41" fill="black"/>
<path d="M215.7 1H1V216.7H215.7V1Z" stroke="url(#paint0_linear_16970_3)" stroke-width="1.08" stroke-miterlimit="10"/>
<path d="M32.87 235.19H32.75C32.75 234.51 32.5 233.93 32 233.45C31.5 232.97 30.92 232.72 30.24 232.72H29.77L29.73 232.33H32.87V235.19ZM32.87 256.92V259.78H29.73L29.77 259.39H30.24C30.92 259.39 31.51 259.15 32 258.66C32.5 258.18 32.75 257.6 32.75 256.91H32.87V256.92ZM36.4 232.33V259.78H32.75V232.33H36.4ZM38.71 232.33C40.57 232.33 42.17 232.59 43.51 233.11C44.86 233.63 45.89 234.38 46.61 235.36C47.33 236.34 47.69 237.52 47.69 238.91C47.69 240.06 47.47 241.05 47.04 241.87C46.61 242.69 46.05 243.35 45.37 243.83C44.69 244.31 43.97 244.65 43.21 244.83C44.57 245.01 45.76 245.44 46.8 246.12C47.83 246.8 48.62 247.66 49.17 248.71C49.72 249.76 49.99 250.96 49.99 252.32C49.99 253.84 49.6 255.16 48.83 256.28C48.06 257.4 46.94 258.27 45.48 258.87C44.02 259.47 42.26 259.77 40.23 259.77H36.03C36.06 259.25 36.07 258.74 36.07 258.24H39.56C40.87 258.24 41.98 258 42.91 257.53C43.84 257.06 44.55 256.35 45.05 255.41C45.55 254.47 45.8 253.32 45.8 251.96C45.8 250.6 45.55 249.48 45.05 248.61C44.55 247.73 43.91 247.06 43.13 246.57C42.35 246.09 41.48 245.75 40.52 245.55C39.57 245.35 38.63 245.26 37.72 245.26V244.91C38.32 244.91 38.96 244.83 39.64 244.67C40.32 244.51 40.97 244.24 41.58 243.85C42.19 243.46 42.69 242.89 43.07 242.14C43.45 241.39 43.64 240.43 43.64 239.26C43.64 238.09 43.43 237.01 43.01 236.18C42.59 235.36 41.97 234.74 41.15 234.34C40.33 233.93 39.33 233.73 38.15 233.73H34.07C34.07 233.73 34.04 233.58 33.97 233.36C33.9 233.14 33.81 232.79 33.68 232.32H38.7L38.71 232.33Z" fill="url(#paint1_radial_16970_3)"/>
<path d="M57.3001 256.92C57.1201 257.44 57.0901 257.89 57.2201 258.25C57.3501 258.62 57.5701 258.9 57.8701 259.09C58.1701 259.29 58.4801 259.38 58.7901 259.38H59.1401V259.77H51.1001V259.38H51.4501C52.0501 259.38 52.6701 259.19 53.3101 258.81C53.9501 258.43 54.4801 257.8 54.9001 256.91H57.2901L57.3001 256.92ZM65.7301 231.7L66.0401 235.11L56.2401 259.66H53.6901L63.7701 236.09C63.8001 236.04 63.8901 235.84 64.0601 235.48C64.2301 235.13 64.4101 234.7 64.6101 234.21C64.8101 233.71 64.9801 233.23 65.1401 232.76C65.3001 232.29 65.3801 231.94 65.3801 231.7H65.7301ZM70.7901 249.54V250.87H58.7901V249.54H70.7901ZM65.7301 231.7L77.7701 259.54H73.1801L64.4401 236.72L65.7301 231.7ZM72.1601 256.92H76.5901C77.0101 257.81 77.5401 258.44 78.1801 258.82C78.8201 259.2 79.4401 259.39 80.0401 259.39H80.3501V259.78H70.3101V259.39H70.6601C71.1801 259.39 71.6401 259.17 72.0301 258.74C72.4201 258.31 72.4601 257.7 72.1501 256.92H72.1601Z" fill="url(#paint2_radial_16970_3)"/>
<path d="M89.92 231.78C90.36 231.78 90.87 231.81 91.45 231.86C92.03 231.91 92.61 231.98 93.2 232.08C93.79 232.17 94.31 232.26 94.77 232.35C95.23 232.44 95.56 232.54 95.77 232.64L95.61 237.31H95.26C95.26 236.03 94.8 235.01 93.89 234.25C92.97 233.49 91.82 233.11 90.44 233.11C88.98 233.11 87.79 233.54 86.89 234.38C85.99 235.23 85.54 236.23 85.54 237.38C85.51 237.96 85.66 238.56 85.99 239.2C86.32 239.84 86.82 240.44 87.5 240.98L95.15 247.37C96.06 248.08 96.71 248.89 97.09 249.82C97.47 250.75 97.65 251.71 97.62 252.7C97.57 255 96.8 256.84 95.31 258.23C93.82 259.62 91.81 260.31 89.27 260.31C88.46 260.31 87.59 260.23 86.66 260.07C85.73 259.91 84.86 259.67 84.05 259.35C83.24 259.02 82.59 258.6 82.09 258.08C81.96 257.61 81.9 257.03 81.91 256.33C81.92 255.64 82 254.92 82.15 254.19C82.3 253.46 82.48 252.8 82.72 252.23H83.07C82.94 253.56 83.13 254.75 83.64 255.8C84.15 256.85 84.89 257.65 85.88 258.21C86.86 258.77 87.99 259.03 89.27 258.97C90.81 258.92 92.09 258.44 93.09 257.54C94.1 256.64 94.6 255.46 94.6 253.99C94.6 253.23 94.43 252.54 94.09 251.91C93.75 251.28 93.23 250.72 92.52 250.22L85.23 244.02C84.24 243.29 83.53 242.43 83.11 241.43C82.69 240.44 82.51 239.44 82.56 238.45C82.61 237.27 82.93 236.17 83.5 235.14C84.07 234.11 84.9 233.28 85.99 232.67C87.07 232.06 88.39 231.75 89.93 231.75L89.92 231.78ZM95.76 232.17V232.99H92.23V232.17H95.76Z" fill="url(#paint3_radial_16970_3)"/>
<path d="M104.86 235.19H104.74C104.71 234.51 104.46 233.93 103.98 233.45C103.5 232.97 102.91 232.72 102.23 232.72H101.72V232.33H104.86V235.19ZM104.86 256.92V259.78H101.72V259.39H102.23C102.91 259.39 103.49 259.15 103.98 258.66C104.47 258.17 104.72 257.6 104.74 256.91H104.86V256.92ZM108.39 232.33V259.78H104.74V232.33H108.39ZM108.27 235.19V232.33H111.41V232.72H110.9C110.22 232.72 109.64 232.96 109.15 233.45C108.67 233.93 108.41 234.52 108.39 235.19H108.27ZM108.27 256.92H108.39C108.42 257.6 108.67 258.18 109.15 258.67C109.63 259.15 110.21 259.4 110.9 259.4H111.41V259.79H108.27V256.93V256.92ZM123.41 232.6L111.65 246.28L109.65 246.36L120.43 232.6H123.41ZM112.55 244.09L123.41 257.5C123.99 258.1 124.56 258.56 125.14 258.87C125.72 259.18 126.41 259.35 127.22 259.38V259.77H125.02C124.76 259.77 124.35 259.75 123.8 259.71C123.25 259.67 122.65 259.57 122 259.42C121.35 259.26 120.69 259.01 120.04 258.66C119.39 258.31 118.81 257.82 118.32 257.19C118.27 257.14 118.03 256.84 117.59 256.31C117.16 255.77 116.62 255.09 115.96 254.27C115.3 253.45 114.62 252.58 113.9 251.66C113.18 250.74 112.49 249.89 111.84 249.09C111.19 248.29 110.45 247.38 109.64 246.36L112.54 244.09H112.55ZM126.11 232.33V232.68H125.95C125.09 232.68 124.28 232.85 123.54 233.19C122.79 233.53 122.16 234 121.64 234.6L118.93 234.52C119.27 234.08 119.33 233.66 119.11 233.27C118.89 232.88 118.52 232.68 117.99 232.68H117.6V232.33H126.11Z" fill="url(#paint4_radial_16970_3)"/>
<path d="M142.38 231.78C145.31 231.78 147.86 232.37 150.05 233.54C152.23 234.72 153.93 236.38 155.15 238.52C156.37 240.66 156.97 243.17 156.97 246.05C156.97 248.93 156.36 251.44 155.15 253.58C153.94 255.72 152.23 257.38 150.05 258.56C147.87 259.74 145.31 260.32 142.38 260.32C139.45 260.32 136.97 259.73 134.79 258.56C132.61 257.38 130.91 255.72 129.69 253.58C128.47 251.44 127.87 248.93 127.87 246.05C127.87 243.17 128.48 240.66 129.69 238.52C130.9 236.38 132.6 234.72 134.79 233.54C136.97 232.36 139.5 231.78 142.38 231.78ZM142.38 258.99C144.5 258.99 146.33 258.45 147.87 257.38C149.41 256.31 150.62 254.81 151.48 252.87C152.34 250.94 152.77 248.66 152.77 246.05C152.77 243.44 152.34 241.16 151.48 239.23C150.62 237.3 149.41 235.79 147.87 234.72C146.33 233.65 144.5 233.11 142.38 233.11C140.26 233.11 138.5 233.65 136.95 234.72C135.39 235.79 134.19 237.29 133.32 239.23C132.46 241.16 132.03 243.44 132.03 246.05C132.03 248.66 132.46 250.94 133.32 252.87C134.18 254.81 135.39 256.31 136.95 257.38C138.5 258.45 140.32 258.99 142.38 258.99Z" fill="url(#paint5_radial_16970_3)"/>
<path d="M165.09 235.15L160.62 235.19C160.23 234.3 159.7 233.67 159.05 233.29C158.4 232.91 157.77 232.72 157.17 232.72H156.86V232.33H166.9V232.72H166.55C166.05 232.72 165.62 232.93 165.24 233.35C164.86 233.77 164.82 234.37 165.1 235.15H165.09ZM171.87 260.41L159.44 232.57H164.03L173.21 255.39L171.88 260.41H171.87ZM171.87 260.41L171.6 257L181.87 232.45H184.38L173.83 256.02C173.83 256.07 173.75 256.27 173.58 256.63C173.41 256.99 173.22 257.41 173.01 257.9C172.8 258.4 172.62 258.88 172.48 259.35C172.34 259.82 172.25 260.17 172.23 260.41H171.88H171.87ZM180.77 235.15C181.06 234.37 181.01 233.76 180.61 233.35C180.22 232.93 179.77 232.72 179.28 232.72H178.93V232.33H186.97V232.72H186.62C186.04 232.72 185.43 232.91 184.78 233.29C184.13 233.67 183.59 234.3 183.17 235.19L180.78 235.15H180.77Z" fill="url(#paint6_radial_16970_3)"/>
<path d="M208.674 8.8038H8.02588V209.118H208.674V8.8038Z" stroke="url(#paint7_linear_16970_3)" stroke-width="1.08" stroke-miterlimit="10"/>
<path d="M144.497 90.0813C145.701 88.8794 147.145 88.2785 148.841 88.2785H150.105V87.3069H126.007V88.2785H127.271C128.957 88.2785 130.421 88.8794 131.665 90.0813C132.899 91.2832 133.521 92.7254 133.521 94.4181V120.028H109.474C111.37 118.786 112.925 117.284 114.139 115.521C116.055 112.727 117.018 109.452 117.018 105.686C117.018 102.31 116.336 99.3258 114.971 96.7217C113.607 94.1276 111.641 91.9843 109.072 90.2916C107.216 89.0697 105.17 88.1783 102.892 87.6174C102.451 87.5073 102 87.3871 101.548 87.3069C101.097 87.2268 100.625 87.1467 100.154 87.0766C102.04 86.6259 103.825 85.7946 105.521 84.5927C107.216 83.3908 108.591 81.7683 109.664 79.7251C110.738 77.6818 111.27 75.228 111.27 72.3735C111.27 68.9281 110.377 65.9935 108.591 63.5597C106.805 61.1259 104.237 59.2629 100.886 57.9609C97.5352 56.6589 93.5523 56.0179 88.9374 56.0179H66.5952L66.6955 56.9894H67.8693C69.5648 56.9894 71.0195 57.5903 72.2635 58.7922C73.4975 59.9941 74.1195 61.4364 74.1195 63.129V117.084C74.1195 118.776 73.4975 120.219 72.2635 121.42C71.0295 122.622 69.5648 123.223 67.8693 123.223H66.6955L66.5952 124.195H92.7397C93.2112 124.195 93.6627 124.195 94.1241 124.175V148.373C94.0539 150.055 93.4219 151.498 92.218 152.699C91.0141 153.901 89.5694 154.502 87.8739 154.502H86.6098V155.474H94.405H102.892V148.363V155.464H110.698V154.492H109.434C107.738 154.492 106.293 153.891 105.09 152.689C103.886 151.488 103.254 150.045 103.183 148.353V123.333H102.21H133.521V148.363C133.521 150.055 132.899 151.498 131.665 152.699C130.431 153.901 128.967 154.502 127.271 154.502H126.007V155.474H150.105V154.502H148.841C147.145 154.502 145.701 153.901 144.497 152.699C143.293 151.498 142.661 150.055 142.591 148.363V94.4081C142.651 92.7154 143.293 91.2731 144.497 90.0713V90.0813ZM99.4112 118.636C97.8462 119.417 96.0905 119.948 94.1141 120.199C93.151 120.329 92.1277 120.389 91.0743 120.389H83.1687V59.5234H87.5629C90.4924 59.5234 92.9804 60.0241 95.0271 61.0357C97.0737 62.0373 98.6186 63.5697 99.662 65.6129C100.705 67.6561 101.227 70.2101 101.227 73.2549C101.227 76.2997 100.756 78.5632 99.8125 80.4161C98.8695 82.269 97.6355 83.6812 96.1105 84.6528C94.5856 85.6243 92.9704 86.3054 91.285 86.696C89.5895 87.0866 88.0044 87.2769 86.5095 87.2769V88.1583C88.7869 88.1583 91.1144 88.3986 93.4821 88.8894C93.8031 88.9495 94.1141 89.0196 94.4251 89.0997C96.4416 89.6005 98.2775 90.3818 99.973 91.4234C101.067 92.1045 102.05 92.9358 102.913 93.9073C103.595 94.6685 104.217 95.5298 104.748 96.4913C105.982 98.6647 106.604 101.439 106.604 104.814C106.604 108.19 105.982 111.044 104.748 113.388C104.307 114.229 103.785 114.99 103.203 115.691C102.16 116.913 100.916 117.895 99.4313 118.646L99.4112 118.636Z" fill="url(#paint8_linear_16970_3)"/>
<path d="M144.426 82.6196H130.853L127.241 63.0589H148.048L144.426 82.6196Z" stroke="url(#paint9_linear_16970_3)" stroke-width="3" stroke-miterlimit="10"/>
<path d="M138.156 60.4849H137.033V82.6196H138.156V60.4849Z" fill="url(#paint10_linear_16970_3)"/>
<path d="M145.58 64.5713H129.599L128.997 60.1844H146.182L145.58 64.5713Z" fill="url(#paint11_linear_16970_3)"/>
<path d="M144.376 84.1219H130.762L130.391 80.4261H144.798L144.376 84.1219Z" fill="url(#paint12_linear_16970_3)"/>
<path d="M117.831 73.4552L124.783 73.5053" stroke="url(#paint13_linear_16970_3)" stroke-width="1.08" stroke-miterlimit="10" stroke-linecap="round"/>
<path d="M116.787 55.5171L121.994 60.1243" stroke="url(#paint14_linear_16970_3)" stroke-width="1.08" stroke-miterlimit="10" stroke-linecap="round"/>
<path d="M157.549 73.4552L150.596 73.5053" stroke="url(#paint15_linear_16970_3)" stroke-width="1.08" stroke-miterlimit="10" stroke-linecap="round"/>
<path d="M157.86 55.5171L152.663 60.1243" stroke="url(#paint16_linear_16970_3)" stroke-width="1.08" stroke-miterlimit="10" stroke-linecap="round"/>
</g>
<defs>
<linearGradient id="paint0_linear_16970_3" x1="0.46" y1="108.85" x2="216.24" y2="108.85" gradientUnits="userSpaceOnUse">
<stop stop-color="#A37A1C"/>
<stop offset="0.23" stop-color="#D3A84D"/>
<stop offset="0.43" stop-color="#FFEC94"/>
<stop offset="0.58" stop-color="#E6BD68"/>
<stop offset="0.77" stop-color="#FFD77C"/>
<stop offset="0.95" stop-color="#B58F3D"/>
<stop offset="1" stop-color="#956E14"/>
</linearGradient>
<radialGradient id="paint1_radial_16970_3" cx="0" cy="0" r="1" gradientUnits="userSpaceOnUse" gradientTransform="translate(39.87 246.05) scale(12.06)">
<stop stop-color="#A37A1C"/>
<stop offset="0.23" stop-color="#D3A84D"/>
<stop offset="0.43" stop-color="#FFEC94"/>
<stop offset="0.58" stop-color="#E6BD68"/>
<stop offset="0.77" stop-color="#FFD77C"/>
<stop offset="0.95" stop-color="#B58F3D"/>
<stop offset="1" stop-color="#956E14"/>
</radialGradient>
<radialGradient id="paint2_radial_16970_3" cx="0" cy="0" r="1" gradientUnits="userSpaceOnUse" gradientTransform="translate(65.7301 245.74) scale(14.33 14.33)">
<stop stop-color="#A37A1C"/>
<stop offset="0.23" stop-color="#D3A84D"/>
<stop offset="0.43" stop-color="#FFEC94"/>
<stop offset="0.58" stop-color="#E6BD68"/>
<stop offset="0.77" stop-color="#FFD77C"/>
<stop offset="0.95" stop-color="#B58F3D"/>
<stop offset="1" stop-color="#956E14"/>
</radialGradient>
<radialGradient id="paint3_radial_16970_3" cx="0" cy="0" r="1" gradientUnits="userSpaceOnUse" gradientTransform="translate(89.75 -175.31) scale(11.52 11.52)">
<stop stop-color="#A37A1C"/>
<stop offset="0.23" stop-color="#D3A84D"/>
<stop offset="0.43" stop-color="#FFEC94"/>
<stop offset="0.58" stop-color="#E6BD68"/>
<stop offset="0.77" stop-color="#FFD77C"/>
<stop offset="0.95" stop-color="#B58F3D"/>
<stop offset="1" stop-color="#956E14"/>
</radialGradient>
<radialGradient id="paint4_radial_16970_3" cx="0" cy="0" r="1" gradientUnits="userSpaceOnUse" gradientTransform="translate(114.47 -175.31) scale(13.24 13.24)">
<stop stop-color="#A37A1C"/>
<stop offset="0.23" stop-color="#D3A84D"/>
<stop offset="0.43" stop-color="#FFEC94"/>
<stop offset="0.58" stop-color="#E6BD68"/>
<stop offset="0.77" stop-color="#FFD77C"/>
<stop offset="0.95" stop-color="#B58F3D"/>
<stop offset="1" stop-color="#956E14"/>
</radialGradient>
<radialGradient id="paint5_radial_16970_3" cx="0" cy="0" r="1" gradientUnits="userSpaceOnUse" gradientTransform="translate(142.42 -175.31) scale(14.41 14.41)">
<stop stop-color="#A37A1C"/>
<stop offset="0.23" stop-color="#D3A84D"/>
<stop offset="0.43" stop-color="#FFEC94"/>
<stop offset="0.58" stop-color="#E6BD68"/>
<stop offset="0.77" stop-color="#FFD77C"/>
<stop offset="0.95" stop-color="#B58F3D"/>
<stop offset="1" stop-color="#956E14"/>
</radialGradient>
<radialGradient id="paint6_radial_16970_3" cx="0" cy="0" r="1" gradientUnits="userSpaceOnUse" gradientTransform="translate(171.91 246.37) scale(14.56)">
<stop stop-color="#A37A1C"/>
<stop offset="0.23" stop-color="#D3A84D"/>
<stop offset="0.43" stop-color="#FFEC94"/>
<stop offset="0.58" stop-color="#E6BD68"/>
<stop offset="0.77" stop-color="#FFD77C"/>
<stop offset="0.95" stop-color="#B58F3D"/>
<stop offset="1" stop-color="#956E14"/>
</radialGradient>
<linearGradient id="paint7_linear_16970_3" x1="7.48413" y1="108.961" x2="209.216" y2="108.961" gradientUnits="userSpaceOnUse">
<stop stop-color="#A37A1C"/>
<stop offset="0.23" stop-color="#D3A84D"/>
<stop offset="0.43" stop-color="#FFEC94"/>
<stop offset="0.58" stop-color="#E6BD68"/>
<stop offset="0.77" stop-color="#FFD77C"/>
<stop offset="0.95" stop-color="#B58F3D"/>
<stop offset="1" stop-color="#956E14"/>
</linearGradient>
<linearGradient id="paint8_linear_16970_3" x1="66.5852" y1="105.756" x2="150.115" y2="105.756" gradientUnits="userSpaceOnUse">
<stop stop-color="#A37A1C"/>
<stop offset="0.23" stop-color="#D3A84D"/>
<stop offset="0.43" stop-color="#FFEC94"/>
<stop offset="0.58" stop-color="#E6BD68"/>
<stop offset="0.77" stop-color="#FFD77C"/>
<stop offset="0.95" stop-color="#B58F3D"/>
<stop offset="1" stop-color="#956E14"/>
</linearGradient>
<linearGradient id="paint9_linear_16970_3" x1="125.425" y1="72.8442" x2="149.854" y2="72.8442" gradientUnits="userSpaceOnUse">
<stop stop-color="#A37A1C"/>
<stop offset="0.23" stop-color="#D3A84D"/>
<stop offset="0.43" stop-color="#FFEC94"/>
<stop offset="0.58" stop-color="#E6BD68"/>
<stop offset="0.77" stop-color="#FFD77C"/>
<stop offset="0.95" stop-color="#B58F3D"/>
<stop offset="1" stop-color="#956E14"/>
</linearGradient>
<linearGradient id="paint10_linear_16970_3" x1="137.033" y1="71.5522" x2="138.156" y2="71.5522" gradientUnits="userSpaceOnUse">
<stop stop-color="#A37A1C"/>
<stop offset="0.23" stop-color="#D3A84D"/>
<stop offset="0.43" stop-color="#FFEC94"/>
<stop offset="0.58" stop-color="#E6BD68"/>
<stop offset="0.77" stop-color="#FFD77C"/>
<stop offset="0.95" stop-color="#B58F3D"/>
<stop offset="1" stop-color="#956E14"/>
</linearGradient>
<linearGradient id="paint11_linear_16970_3" x1="128.997" y1="62.3778" x2="146.182" y2="62.3778" gradientUnits="userSpaceOnUse">
<stop stop-color="#A37A1C"/>
<stop offset="0.23" stop-color="#D3A84D"/>
<stop offset="0.43" stop-color="#FFEC94"/>
<stop offset="0.58" stop-color="#E6BD68"/>
<stop offset="0.77" stop-color="#FFD77C"/>
<stop offset="0.95" stop-color="#B58F3D"/>
<stop offset="1" stop-color="#956E14"/>
</linearGradient>
<linearGradient id="paint12_linear_16970_3" x1="130.391" y1="82.2791" x2="144.798" y2="82.2791" gradientUnits="userSpaceOnUse">
<stop stop-color="#A37A1C"/>
<stop offset="0.23" stop-color="#D3A84D"/>
<stop offset="0.43" stop-color="#FFEC94"/>
<stop offset="0.58" stop-color="#E6BD68"/>
<stop offset="0.77" stop-color="#FFD77C"/>
<stop offset="0.95" stop-color="#B58F3D"/>
<stop offset="1" stop-color="#956E14"/>
</linearGradient>
<linearGradient id="paint13_linear_16970_3" x1="117.289" y1="73.4852" x2="125.325" y2="73.4852" gradientUnits="userSpaceOnUse">
<stop stop-color="#A37A1C"/>
<stop offset="0.23" stop-color="#D3A84D"/>
<stop offset="0.43" stop-color="#FFEC94"/>
<stop offset="0.58" stop-color="#E6BD68"/>
<stop offset="0.77" stop-color="#FFD77C"/>
<stop offset="0.95" stop-color="#B58F3D"/>
<stop offset="1" stop-color="#956E14"/>
</linearGradient>
<linearGradient id="paint14_linear_16970_3" x1="116.246" y1="57.8207" x2="122.536" y2="57.8207" gradientUnits="userSpaceOnUse">
<stop stop-color="#A37A1C"/>
<stop offset="0.23" stop-color="#D3A84D"/>
<stop offset="0.43" stop-color="#FFEC94"/>
<stop offset="0.58" stop-color="#E6BD68"/>
<stop offset="0.77" stop-color="#FFD77C"/>
<stop offset="0.95" stop-color="#B58F3D"/>
<stop offset="1" stop-color="#956E14"/>
</linearGradient>
<linearGradient id="paint15_linear_16970_3" x1="150.055" y1="73.4852" x2="158.091" y2="73.4852" gradientUnits="userSpaceOnUse">
<stop stop-color="#A37A1C"/>
<stop offset="0.23" stop-color="#D3A84D"/>
<stop offset="0.43" stop-color="#FFEC94"/>
<stop offset="0.58" stop-color="#E6BD68"/>
<stop offset="0.77" stop-color="#FFD77C"/>
<stop offset="0.95" stop-color="#B58F3D"/>
<stop offset="1" stop-color="#956E14"/>
</linearGradient>
<linearGradient id="paint16_linear_16970_3" x1="152.111" y1="57.8207" x2="158.402" y2="57.8207" gradientUnits="userSpaceOnUse">
<stop stop-color="#A37A1C"/>
<stop offset="0.23" stop-color="#D3A84D"/>
<stop offset="0.43" stop-color="#FFEC94"/>
<stop offset="0.58" stop-color="#E6BD68"/>
<stop offset="0.77" stop-color="#FFD77C"/>
<stop offset="0.95" stop-color="#B58F3D"/>
<stop offset="1" stop-color="#956E14"/>
</linearGradient>
<clipPath id="clip0_16970_3">
<rect width="216.7" height="261.41" fill="white"/>
</clipPath>
</defs>
</svg>
